<svg width="120" height="40" viewBox="0 0 120 40" fill="none" xmlns="http://www.w3.org/2000/svg">
<path d="M65.5759 9.41306L63.5042 13.2781C62.6225 12.7494 60.7893 12.571 59.7695 12.571C57.5576 12.571 55.7976 13.2155 54.4896 14.5042C53.1816 15.7929 52.5277 17.5238 52.5277 19.6967C52.5277 21.88 53.1923 23.6162 54.527 24.9103C55.8615 26.2043 57.6428 26.8542 59.8601 26.8542C61.0441 26.8542 62.8391 26.6284 63.9329 26.1246L65.4669 30.1009C63.3856 30.6769 61.4133 31.4233 59.2537 31.4233C55.234 31.4233 52.1076 30.3901 49.8639 28.3293C47.6202 26.2629 46.4981 23.3819 46.4981 19.6913C46.4981 16.1658 47.6042 13.3698 49.8161 11.2984C52.028 9.22656 55.0268 8.19336 58.8178 8.19336C60.0834 8.19336 61.2848 8.29476 62.4227 8.49706C63.5605 8.69926 64.6135 9.00826 65.5759 9.41306ZM77.5978 12.5071C76.0712 12.5071 74.8431 13.1676 73.9125 14.4828C72.9819 15.7982 72.5195 17.5556 72.5195 19.7603C72.5195 21.9757 72.9822 23.7441 73.9072 25.0646C74.8321 26.3852 76.0608 27.0457 77.5978 27.0457C79.1285 27.0457 80.3465 26.3849 81.2606 25.07C82.1751 23.7546 82.6324 21.9864 82.6324 19.7603C82.6324 17.5663 82.1751 15.8089 81.2552 14.4881C80.3361 13.1676 79.1179 12.5071 77.5978 12.5071ZM77.5978 8.19336C81.0375 8.19336 83.7228 9.22146 85.6633 11.277C87.5987 13.327 88.5665 16.1765 88.5665 19.8138C88.5665 23.467 87.5987 26.3162 85.6633 28.3558C83.7228 30.4005 81.0375 31.4233 77.5978 31.4233C74.1411 31.4233 71.4402 30.4008 69.4994 28.3558C67.5588 26.3162 66.5855 23.467 66.5855 19.8138C66.5855 16.1765 67.5588 13.3268 69.5047 11.277C71.4559 9.22126 74.1524 8.19336 77.5978 8.19336ZM92.0436 8.73676H101.045C102.591 13.8257 104.099 18.9272 105.698 23.9998C107.37 18.9448 108.857 13.8265 110.42 8.73676H119.288V30.912H113.737V13L108.053 30.912H102.758L97.2121 13.3994C97.2121 19.2369 97.2121 25.0744 97.2121 30.912H92.0436V8.73676Z" fill="#18449C"/>
<path fill-rule="evenodd" clip-rule="evenodd" d="M34.6887 10.0434C34.6455 8.79693 34.2279 7.81223 33.587 6.98273C32.9782 6.19503 32.1468 5.64393 31.1004 5.08203L17.9458 5.08623L17.9411 5.10893C16.9001 10.136 16.9215 13.4958 17.7325 15.6156C18.5241 17.6836 20.0866 18.5588 22.153 18.652L22.3754 18.6621C23.6771 17.87 24.9418 17.5906 26.2406 17.1457C28.096 16.5102 29.9505 15.9781 31.446 15.1653C32.4596 14.6146 33.3298 13.9693 33.9051 13.1079C34.452 12.289 34.7314 11.272 34.6887 10.0434V10.0434ZM9.4988 21.0713C9.5315 21.0534 9.5604 21.0357 9.5856 21.0185C9.5562 21.0363 9.5275 21.054 9.4988 21.0713ZM7.6528 18.8955C6.9047 18.8575 6.1988 19.1894 6.1481 17.5518C6.0922 15.7499 6.8502 15.3372 7.2962 15.2087C7.8457 15.0506 8.2127 15.458 8.7778 15.6965C8.8797 14.8657 9.1746 14.1397 9.7552 13.9399C11.3999 13.3735 12.2282 16.9824 12.1534 18.0746C12.1348 18.346 13.0447 19.9336 12.2303 20.8688C11.5864 21.6083 11.852 21.063 11.7533 21.5436C11.5825 22.3764 10.8844 23.0159 10.0758 23.2381C9.4355 23.4137 8.8354 23.1708 8.7911 21.9033C8.7782 21.5337 9.0862 21.3248 9.4988 21.0713C9.0127 21.3391 7.7529 21.6313 7.2147 20.8158C6.6877 20.0179 7.0446 19.4476 7.6528 18.8955V18.8955ZM22.9805 20.9316C22.811 20.9279 22.7453 20.9246 22.5685 20.9092C22.1359 20.8598 21.703 20.7228 21.2776 20.4383C20.681 21.4074 20.2483 22.3452 19.9671 23.2538C21.0165 24.2361 22.2466 24.8639 23.3958 25.0999C23.3656 25.2425 23.4231 25.4149 23.7578 25.8411C23.9298 26.0603 24.205 26.2256 24.5469 26.6232C24.6712 26.7679 25.0252 27.1526 25.4877 27.3184C26.6374 27.7306 28.5229 28.0695 28.2831 26.2044C28.261 26.0333 28.3845 26.1381 28.7805 25.9301C29.079 25.7731 29.3969 25.265 29.3768 24.8476C29.3578 24.4407 29.2573 24.5318 29.5568 24.1964C29.8298 23.8907 30.369 23.1171 29.567 22.2691C28.5249 21.1674 28.441 21.2868 28.1121 21.2424C28.3581 20.8604 28.6561 20.6519 28.8372 20.3273C29.3384 19.4297 29.346 18.3958 29.1011 17.9127C29.0098 17.7321 28.8575 17.6703 28.5885 17.5665C28.5187 17.5397 28.285 17.4636 28.0213 17.7642C27.7138 18.1153 27.3646 18.8478 26.8852 19.1726C26.1549 19.6671 25.8389 20.0335 25.595 20.073C25.0483 20.1614 24.6243 20.4232 24.3024 20.7777C23.8701 20.8579 23.4266 20.9313 22.9805 20.9316V20.9316ZM26.5708 6.53633C26.9293 6.94263 26.4836 7.92273 25.5746 8.72543C24.6656 9.52813 23.638 9.84983 23.279 9.44333C22.9204 9.03703 23.3664 8.05693 24.2753 7.25423C25.1843 6.45133 26.2117 6.13003 26.5708 6.53633ZM15.2544 6.45823C12.2837 8.36823 10.6694 10.3028 9.8436 12.6751L9.8933 12.7169C11.196 13.8102 12.2504 13.5456 13.1095 12.3821C13.999 11.1766 14.6976 9.04993 15.2544 6.45823V6.45823ZM15.6723 6.38083L15.6618 6.38743C15.5276 7.02213 15.385 7.63113 15.2328 8.20773C15.39 7.62313 15.5366 7.01063 15.6723 6.38083V6.38083Z" fill="#CEE4F9"/>
<path fill-rule="evenodd" clip-rule="evenodd" d="M0 3.36171C0.3985 4.10311 0.798901 4.82581 1.1656 5.48771C1.7169 6.48281 2.1945 7.34481 2.4353 7.84781L8.3084 5.54231C8.1859 5.06911 8.0806 4.61071 7.9794 4.17001C7.7307 3.08531 7.5051 2.10301 7.0731 1.17271L6.9623 1.28051L6.861 1.37931L6.7271 1.33511L6.5133 1.26441L6.3932 1.55591L6.3103 1.75751L6.1042 1.68821L5.8573 1.60471L5.7346 1.75301L5.5842 1.93481L5.4038 1.78121L5.302 1.69451L5.2976 1.77701L5.2781 2.14161L4.9568 1.97111L4.6093 1.78661L4.4665 1.77301L4.4539 2.26001L4.4484 2.48051L4.228 2.48701L3.8193 2.49901L3.7453 2.50111L3.6844 2.46071L3.5364 2.36281L3.4024 2.31511L3.4015 2.31891L3.3581 2.53101L3.1436 2.50291L2.7436 2.45031L2.6912 2.44331L2.646 2.41401L2.5807 2.37111L2.5761 2.38461L2.5213 2.54271L2.3547 2.54151L2.1626 2.54001L2.1666 2.84871L2.1701 3.09731L1.9223 3.08381L1.7756 3.07581L1.6809 3.18761L1.5097 3.39001L1.3309 3.19391L1.1647 3.01161L1.0429 3.05241L1.0119 3.06271L0.978 3.06421L0.8497 3.06961L0.7874 3.22381L0.664 3.52921L0.4173 3.31241L0.3221 3.22841L0.315 3.24271L0.2434 3.38651L0.0825 3.37031L0 3.36171V3.36171ZM21.5367 0.569512C20.2459 1.13971 19.1601 2.13921 18.5663 3.56111L30.2784 3.55721C29.5046 2.00141 28.2029 0.95961 26.7312 0.42501C25.8872 0.11861 24.9871 -0.0216895 24.0987 0.00271055C23.2115 0.0273105 22.3349 0.216912 21.5367 0.569512ZM10.9777 23.9827C12.5164 27.1451 15.222 30.0661 19.1907 32.723L19.8148 33.1408L19.0666 33.0728C16.7422 32.8617 14.7241 33.5105 12.9006 34.7038C11.15 35.8498 9.5743 37.4999 8.078 39.3754C10.0919 39.5315 12.2532 39.4299 14.5929 39.0139C17.073 38.5731 19.7528 37.779 22.6698 36.5641L22.7571 36.5275L22.8388 36.5746C26.5358 38.6941 29.9616 39.7021 33.1177 39.6106C36.1296 39.5232 38.9036 38.4326 41.4405 36.35C38.6367 35.9912 36.658 34.803 34.7584 33.6623C31.5979 31.7644 28.6598 29.9998 22.4179 32.5939L22.295 32.6449L22.2039 32.5474C20.3731 30.5814 19.2973 28.4692 19.1917 26.1705C19.09 23.9581 19.8891 21.5827 21.7798 19.0108C19.7328 18.8281 18.1834 17.8672 17.3738 15.7517C16.5579 13.6195 16.5565 10.1302 17.5369 5.22821C17.2864 5.34441 17.0347 5.46731 16.7813 5.60001C16.433 5.78231 16.0759 5.98541 15.7074 6.21601C15.1348 8.92511 14.3603 11.3323 13.4174 12.6102C12.4608 13.9057 11.1293 14.1463 9.7133 13.0908C9.6105 13.5444 9.5946 13.666 9.5676 13.8095C9.6079 13.79 9.6498 13.7727 9.6931 13.7579C9.8591 13.7007 10.0203 13.6798 10.1749 13.6905C10.5966 13.7191 10.9552 13.9794 11.2516 14.3671C11.5298 14.7306 11.7552 15.2099 11.9274 15.7096C12.2372 16.6091 12.3786 17.5925 12.3448 18.0871C12.343 18.1138 12.3864 18.2382 12.4443 18.4051V18.406C12.6656 19.043 13.0672 20.2 12.3753 20.9946C12.1684 21.2325 12.0442 21.3487 11.9715 21.4078L13.8004 26.418C13.8822 26.9843 13.0993 27.0316 12.8731 26.8982L11.1605 22.8733C10.9996 23.0116 10.821 23.1305 10.6309 23.227C10.7401 23.4803 10.8558 23.7323 10.9777 23.9827V23.9827ZM20.1917 19.5031L20.2534 19.507L20.5162 19.5227L20.3595 19.7293C19.7486 20.6935 19.3897 21.4182 19.1619 22.0696C18.9339 22.7215 18.8363 23.3025 18.7473 23.9791L18.7321 24.0947L18.6157 24.1017C17.9707 24.1402 17.4841 24.1457 17.034 24.0911C16.5813 24.0364 16.1693 23.9207 15.6757 23.7176L15.6136 23.6918L15.5947 23.6279C15.3809 22.8963 15.3122 21.951 15.3788 20.982C15.405 20.603 15.4519 20.2198 15.519 19.8434L15.5159 19.8407L15.5298 19.7582C15.5885 19.4156 15.6478 19.1567 15.7178 18.9171C15.7834 18.6929 15.8571 18.4901 15.9483 18.2523L15.9513 18.2447L15.9528 18.2406L15.9573 18.2285L15.9665 18.2055L15.9668 18.2043L16.0436 18.0054L16.1921 18.1503C16.6541 18.5078 17.2496 18.8215 17.9603 19.0602C18.6122 19.2788 19.3607 19.4346 20.1917 19.5031V19.5031ZM19.2461 21.1325C18.6648 21.0947 17.9998 20.9499 17.3831 20.7516C16.7549 20.5494 16.1723 20.29 15.7733 20.0292C15.7208 20.3508 15.6831 20.6765 15.661 20.9995C15.5983 21.9105 15.6576 22.7947 15.8476 23.4853C16.2877 23.6621 16.6614 23.764 17.0686 23.8134C17.4707 23.8622 17.9107 23.8601 18.4834 23.8287C18.5708 23.1818 18.673 22.6137 18.8948 21.9789C18.9882 21.7122 19.1024 21.4338 19.2461 21.1325V21.1325ZM16.1592 18.4946C16.0225 18.8802 15.9117 19.2964 15.8278 19.7251C16.2 19.9939 16.8061 20.2702 17.4691 20.4837C18.1076 20.6888 18.7955 20.8349 19.3758 20.858C19.4209 20.7732 19.4669 20.6852 19.5122 20.5977V20.5971C19.6573 20.3178 19.7989 20.0457 19.9856 19.7692C19.212 19.7002 18.4605 19.5307 17.8125 19.3132C17.1093 19.0771 16.5238 18.7819 16.1592 18.4946V18.4946ZM18.0121 3.94411L15.3277 3.94501L15.3142 4.70451L18.2067 4.70361L18.8061 4.70341L19.5125 4.70311L28.928 4.69981L29.6108 4.69971L30.1975 4.69951L33.2951 4.69831L33.3084 3.93891L30.8748 3.93991L30.5803 3.94011L27.0566 3.94111L21.4682 3.94311L18.2858 3.94431L18.0121 3.94411V3.94411Z" fill="#F23139"/>
<path fill-rule="evenodd" clip-rule="evenodd" d="M33.7982 8.01875C34.1002 8.61555 34.2794 9.29226 34.3057 10.0548C34.4423 13.9905 30.9851 15.1488 27.1332 16.4392C26.7651 16.5624 26.3935 16.687 26.1167 16.7817C25.9285 16.8461 25.7302 16.9122 25.5253 16.9802C27.0991 15.1078 29.1844 13.4893 31.8664 12.4265C30.9462 11.9317 29.9061 12.4257 28.9036 13.0757C27.1022 14.2434 25.6261 15.7121 24.4986 17.3276C23.4958 17.6803 22.4821 18.096 21.8279 18.6298L22.3754 18.6615C22.9881 18.2959 23.5695 18.0452 24.1613 17.8314C23.565 18.7605 23.0808 19.7314 22.7129 20.7162C22.6762 20.7136 22.6377 20.7105 22.5917 20.7064C22.3901 20.6837 22.1883 20.6396 21.9882 20.569C21.8608 20.5241 21.5924 20.3689 21.4 20.2421L21.1924 20.5771C21.3852 20.6996 21.7168 20.9057 21.8525 20.9536C22.0833 21.0351 22.3148 21.0849 22.5453 21.1113H22.551L22.5712 21.113C22.2118 22.1681 21.9858 23.2349 21.8982 24.2795C21.7497 24.2036 21.6077 24.1284 21.4777 24.0585C20.9755 23.7881 20.492 23.4537 20.0338 23.0459L19.9024 23.471C20.4093 23.9097 21.0169 24.3504 21.51 24.6158C22.0668 24.9157 22.6375 25.1331 23.1935 25.2634C23.2037 25.3191 23.2233 25.3798 23.2547 25.4482C23.3141 25.5776 23.4202 25.7409 23.5974 25.9666C23.6859 26.0791 23.7934 26.1747 23.9196 26.2868L23.9215 26.2885C24.0562 26.4082 24.2156 26.5499 24.3921 26.7552C24.4582 26.8319 24.5856 26.9727 24.76 27.1185C24.9362 27.2656 25.1606 27.417 25.4189 27.5096C25.9958 27.7162 26.7551 27.9048 27.3684 27.8262C27.6033 27.7959 27.8193 27.7268 27.9994 27.6064C28.1879 27.4805 28.3349 27.3026 28.4215 27.0602C28.4982 26.846 28.5265 26.5819 28.4941 26.2599C28.5824 26.2364 28.7071 26.1982 28.8752 26.1101C29.0651 26.0105 29.2572 25.8023 29.3908 25.5597C29.5134 25.3371 29.5918 25.0776 29.5805 24.8375C29.5752 24.7292 29.565 24.6539 29.5572 24.5967L29.5571 24.5954C29.5463 24.5187 29.5458 24.5137 29.7084 24.3315C29.8601 24.1617 30.0865 23.8599 30.1645 23.4753C30.2445 23.0812 30.1714 22.6114 29.7153 22.129C29.0077 21.3804 28.8027 21.1979 28.5758 21.1254C28.6762 21.0069 28.951 20.5407 29.0152 20.4255C29.2614 19.9847 29.3956 19.5125 29.4424 19.0819C29.4979 18.5726 29.4312 18.1122 29.283 17.8202C29.2183 17.6926 29.1331 17.607 29.0175 17.5365C28.9201 17.4767 28.8065 17.4317 28.6619 17.376C28.6104 17.3563 28.4971 17.3176 28.3472 17.3403C28.208 17.3615 28.0383 17.4355 27.8681 17.6297C27.7529 17.761 27.639 17.9319 27.5165 18.1154L27.5135 18.12C27.2969 18.4448 27.0506 18.8144 26.771 19.0037C25.9938 19.7267 25.7127 19.8483 24.7923 20.1322C24.567 20.2549 24.3698 20.411 24.1989 20.5891C24.0052 20.6247 23.8108 20.6582 23.6211 20.6822C23.4642 20.7024 23.3063 20.7176 23.1488 20.7241C23.6625 19.6224 24.3058 18.5391 25.0914 17.5194L25.2879 17.4566C25.5949 17.3588 25.9108 17.258 26.2406 17.1451C26.6428 17.0072 26.9498 16.9045 27.2532 16.8028L27.2546 16.8024C29.8024 15.949 32.1837 15.1513 33.5366 13.5907C36.2484 16.311 37.632 19.5699 37.8176 22.8076C38.0618 19.7807 37.2141 16.5263 34.0427 12.8875C34.0025 12.9563 33.9605 13.0237 33.9168 13.0897L33.9116 13.0975C34.444 12.2921 34.7324 11.3018 34.6887 10.0428C34.6602 9.22065 34.4669 8.49035 34.1407 7.84585C33.527 6.63335 32.4446 5.72755 31.1004 5.08105L30.1268 5.08146C31.7713 5.70276 33.1091 6.65705 33.7982 8.01875ZM33.9116 13.0975L33.9051 13.1074C33.8777 13.1486 33.8497 13.1893 33.821 13.2296C33.8519 13.1861 33.8821 13.1421 33.9116 13.0975ZM21.9233 24.2923C22.1611 23.2543 22.5043 22.1886 22.9638 21.1343L22.9766 21.1346H22.9805C23.2128 21.1344 23.444 21.1152 23.6721 21.086C23.7394 21.0772 23.8058 21.0678 23.8717 21.0579C23.8125 21.146 23.7485 21.2569 23.6985 21.3497C23.5228 21.6817 23.4049 22.0378 23.3328 22.3879C23.28 22.5669 23.2527 22.7484 23.2556 22.9267C23.222 23.3366 23.2475 23.7141 23.3105 24.0046C23.3157 24.0276 23.2958 24.1091 23.2706 24.2126L23.2694 24.2174C23.2287 24.3841 23.2266 24.6077 23.2244 24.8449L23.2244 24.8463C22.8262 24.7295 22.3494 24.5092 21.9233 24.2923ZM23.2556 22.9267C23.27 22.7516 23.2951 22.5706 23.3328 22.3879C23.4961 21.8336 23.9032 21.3031 24.4076 20.9648L24.4532 20.9145C24.6062 20.7461 24.7837 20.6005 24.9871 20.4898L25.0514 20.4706C25.9762 20.1955 26.1676 20.1385 26.9991 19.3403C27.346 19.1053 27.6157 18.7011 27.8526 18.3456L27.8552 18.3421C27.971 18.1685 28.0782 18.0078 28.1745 17.8976C28.2676 17.7916 28.3472 17.7531 28.4081 17.7439C28.4582 17.7364 28.4979 17.7498 28.516 17.7567C28.6398 17.8045 28.737 17.8424 28.8054 17.8842C28.856 17.915 28.8926 17.9513 28.9192 18.0039C29.0341 18.2307 29.0843 18.6073 29.0373 19.0389C28.9957 19.42 28.8768 19.8379 28.6594 20.2279C28.463 20.5803 28.1391 21.0187 27.7672 21.4009C27.0271 22.0527 26.1931 22.0472 25.2119 21.5601C25.2858 21.7146 25.5145 22.08 25.6842 22.1521C25.0661 22.3351 24.743 22.5609 24.7274 22.7606C24.6791 23.3862 24.8873 23.7496 25.1413 23.96C24.8652 24.0663 24.6641 24.2381 24.526 24.4247C24.3668 24.6404 24.2899 24.8792 24.2776 25.0623C24.2722 25.1441 24.2794 25.2202 24.2977 25.2829C24.3235 25.3711 24.4787 25.4859 24.6959 25.5878C24.6023 25.6361 24.5185 25.6971 24.4505 25.7706C24.366 25.8622 24.3123 25.9437 24.2883 26.0702L24.1893 25.9819C24.0796 25.885 23.9866 25.8018 23.918 25.7146C23.7608 25.5142 23.6703 25.3777 23.625 25.2789C23.5944 25.2121 23.589 25.172 23.5953 25.1417L23.6382 24.9413C23.6133 24.6857 23.6002 24.4783 23.6421 24.3076C23.6798 24.1536 23.7093 24.0316 23.6844 23.9207C23.3911 23.6332 23.2617 23.2864 23.2556 22.9267ZM23.3196 24.8725C23.3511 24.8806 23.3821 24.8879 23.4124 24.8946C23.381 24.8875 23.35 24.8802 23.3196 24.8725ZM24.7016 26.4903C24.7599 26.5582 24.8717 26.6821 25.0206 26.8061C25.1674 26.9286 25.3523 27.0533 25.5563 27.1264C26.0876 27.3169 26.7796 27.4918 27.3175 27.4226C27.4921 27.4002 27.6485 27.3513 27.773 27.2681C27.8897 27.1902 27.9815 27.0778 28.0369 26.9229C28.0903 26.7732 28.1127 26.5832 28.0935 26.3461L28.0595 26.3453C27.7547 26.3381 27.1405 26.3237 26.7167 26.2565C26.4803 26.2191 26.2467 26.1263 26.0192 26.0358L26.0132 26.0334C25.8451 25.9667 25.6798 25.9012 25.5309 25.8677L25.5228 25.8658L25.5148 25.8641L25.5075 25.8623L25.4989 25.8602L25.4955 25.8595L25.491 25.8584L25.4836 25.8566C25.3249 25.8222 25.1413 25.8315 24.9829 25.8833C24.8811 25.9162 24.7926 25.9659 24.733 26.0304C24.6821 26.0855 24.6516 26.1543 24.6536 26.2352C24.6549 26.2959 24.6633 26.4112 24.7016 26.4903ZM28.0813 26.0421C28.0881 26.0147 28.0995 25.993 28.1154 25.9752C28.0977 25.9909 28.0872 26.0144 28.0813 26.0421ZM28.1154 25.9752C28.1588 25.9263 28.2371 25.9058 28.3563 25.8752C28.4261 25.8573 28.5328 25.8293 28.6855 25.7491C28.8063 25.6857 28.9361 25.5396 29.0334 25.3634C29.1232 25.1999 29.1812 25.0167 29.1734 24.8568C29.1692 24.7657 29.1604 24.7007 29.1535 24.6512C29.1474 24.6069 29.1422 24.5698 29.1395 24.5373C29.1059 24.5409 29.0014 24.5481 28.9071 24.5546L28.9059 24.5547L28.9046 24.5548L28.9033 24.5549C28.8292 24.56 28.7619 24.5646 28.7413 24.5667C28.3853 24.6027 27.9571 24.62 27.535 24.5917C26.9934 24.5556 26.3024 24.4268 25.7768 24.2344C25.6222 24.2333 25.4865 24.2525 25.3689 24.2869C25.1216 24.3591 24.9475 24.4994 24.8339 24.6531C24.722 24.8041 24.6688 24.9662 24.6606 25.0878C24.6582 25.1258 24.6599 25.1558 24.6654 25.1755C24.6664 25.1793 24.6878 25.1862 24.7251 25.1985C24.7743 25.2148 24.8519 25.2404 24.9491 25.2805C25.1223 25.352 25.335 25.4246 25.5426 25.4764C25.5701 25.482 25.5971 25.4881 25.6234 25.4953C25.7988 25.536 25.9778 25.6075 26.1602 25.6798C26.3678 25.7624 26.581 25.8472 26.7767 25.8779C27.1906 25.944 27.584 25.9542 27.8634 25.9614L27.8675 25.9615C27.9153 25.9627 27.9868 25.9672 28.046 25.9709C28.0725 25.9726 28.0972 25.9742 28.1154 25.9752ZM29.3289 24.1461L29.3779 24.0907C29.3633 24.1059 29.342 24.1302 29.3289 24.1461ZM29.3809 24.0876L29.4049 24.0604C29.5262 23.9247 29.7066 23.6862 29.7656 23.3956C29.8225 23.1151 29.7642 22.7736 29.4185 22.4081C28.6289 21.573 28.4405 21.4845 28.2553 21.4616C28.1193 21.6284 27.9904 21.7028 27.8817 21.7656C27.8406 21.7892 27.8025 21.8113 27.7679 21.836C28.1313 21.8716 28.4333 21.9874 28.5882 22.1435C28.4582 22.1506 28.3387 22.1568 28.2272 22.1625C27.4446 22.2029 27.0507 22.2232 26.1404 22.4295C25.4637 22.5829 25.1162 22.7151 25.1105 22.7889C25.0587 23.4587 25.3805 23.7099 25.6294 23.8019C26.0966 23.975 27.0184 24.1725 27.5605 24.2089C27.9619 24.2356 28.3674 24.2194 28.7036 24.1854L29.3809 24.0876Z" fill="#18449C"/>
<path d="M15.2544 6.45755C12.7963 8.14435 11.1485 9.38945 9.8436 12.6745L10.2053 12.9556C11.4666 10.0151 12.9402 8.55965 15.1414 6.96925L15.2544 6.45755Z" fill="#18449C"/>
<path d="M26.1299 7.38485C26.3636 7.64945 26.0731 8.28785 25.481 8.81065C24.8891 9.33364 24.2197 9.54285 23.9859 9.27825C23.7523 9.01355 24.0428 8.37525 24.6347 7.85235C25.2268 7.32945 25.8962 7.12025 26.1299 7.38485Z" fill="#18449C"/>
<path d="M25.9548 12.3965L27.7347 13.2615L26.0546 11.6313L24.7239 12.9787L25.9548 12.3965Z" fill="#18449C"/>
<path d="M2.66049 8.33115L3.55629 9.86555C3.83109 9.76505 4.07699 9.71015 4.29779 9.69175C4.58129 9.66835 4.82669 9.70395 5.04289 9.78065C5.24839 9.85385 5.41559 9.93555 5.58079 10.1026C5.70329 10.2265 5.81929 10.3949 5.94349 10.6427L7.73399 9.97445C7.65219 9.69355 7.62369 9.45725 7.62929 9.25675C7.63649 8.99305 7.70199 8.79125 7.78259 8.63075C7.97649 8.24405 8.29379 8.09895 8.88889 7.84285L8.33909 6.10205L2.66049 8.33115Z" fill="#18449C"/>
<path fill-rule="evenodd" clip-rule="evenodd" d="M7.9503 10.3916L6.1539 11.1069L7.81669 15.0149C7.64229 14.9688 7.45711 14.9621 7.24352 15.0235C6.99032 15.0963 6.64792 15.2506 6.37622 15.6434C6.11812 16.017 5.92732 16.6083 5.95662 17.5565C6.00232 19.0384 6.53442 19.104 7.19081 19.0899C7.02422 19.283 6.89571 19.4852 6.82551 19.705C6.70871 20.0708 6.75482 20.4673 7.05452 20.921C7.31132 21.3098 7.70342 21.4821 8.11482 21.528C8.30622 21.5495 8.50261 21.5426 8.69061 21.5175C8.62751 21.6327 8.59452 21.7607 8.59972 21.9096C8.60882 22.1746 8.64182 22.3995 8.69362 22.5879C8.78302 22.9143 8.93102 23.1387 9.11612 23.2815C9.30782 23.4293 9.53292 23.4872 9.77112 23.4788C9.88742 23.4749 10.0068 23.4548 10.1261 23.4221C10.9164 23.175 11.1605 22.873 11.1605 22.873L12.8731 26.8979C13.0993 27.0313 13.8822 26.984 13.8004 26.4177L11.9715 21.4075L11.9681 21.4102C12.0403 21.352 12.1651 21.2359 12.3753 20.9943C13.0672 20.1997 12.6656 19.0427 12.4443 18.4057L12.4407 18.3943C12.3846 18.2327 12.3431 18.1129 12.3448 18.0868C12.3786 17.5922 12.2372 16.6088 11.9274 15.7093C11.7552 15.2096 11.5298 14.7303 11.2516 14.3668C10.9552 13.9791 10.5966 13.7188 10.1749 13.6902C10.0203 13.6795 9.85911 13.7004 9.69311 13.7576C9.5342 13.8123 9.39421 13.899 9.2717 14.0117L7.9503 10.3916ZM9.12281 21.5768C9.23351 21.463 9.40192 21.3553 9.59502 21.2368C9.61182 21.216 9.62631 21.1954 9.63811 21.1753C9.62251 21.2046 9.60542 21.2277 9.59502 21.2368C9.62552 21.2199 9.65392 21.2028 9.67882 21.1864L9.68012 21.1857L9.69291 21.1771C10.1059 20.9247 10.5986 20.6186 10.9947 20.0822C11.0831 20.0514 11.1724 20.0457 11.2541 20.0649C11.3178 20.0798 11.3779 20.1102 11.4301 20.1551C11.4862 20.2034 11.535 20.2699 11.5724 20.354C11.652 20.533 11.6704 20.8805 11.6132 21.2124C11.5818 21.2613 11.5833 21.2839 11.5862 21.3284C11.5864 21.3307 11.5866 21.3331 11.5867 21.3355V21.3385C11.5876 21.3521 11.5899 21.3866 11.5655 21.5046C11.4905 21.8718 11.3004 22.1988 11.0408 22.4612C10.7638 22.7408 10.4078 22.9476 10.0255 23.0526C9.93411 23.0775 9.84422 23.0931 9.75892 23.0959C9.60632 23.101 9.46521 23.0668 9.35041 22.9781C9.22881 22.8845 9.12851 22.7264 9.06311 22.4873C9.01901 22.3264 8.99072 22.1308 8.98262 21.8967C8.97842 21.7722 9.03171 21.6702 9.12281 21.5768ZM12.0856 20.742L12.0282 20.8071C12.0234 20.5911 11.9891 20.348 11.9224 20.1979C11.8615 20.0608 11.7783 19.9495 11.6808 19.8654C11.5796 19.7781 11.4639 19.7198 11.3414 19.691C11.3112 19.6841 11.2803 19.6785 11.2494 19.6751C11.28 19.6169 11.3094 19.5562 11.338 19.4933L11.3471 19.4753C11.3984 19.3692 11.6197 18.9089 11.6703 18.4706C11.7162 18.0734 11.6353 17.6973 11.2342 17.5511C11.3665 17.0546 11.1631 16.1855 10.9923 15.4557C10.9866 15.4317 10.9811 15.4078 10.9755 15.3841C10.8712 15.7288 10.8895 16.0905 10.9081 16.4581C10.9492 17.2593 10.992 18.0953 9.46281 18.5824C9.42121 18.5958 9.35832 18.5203 9.28672 18.3871C9.20062 18.2277 9.12522 18.0035 9.06581 17.7396C9.00492 17.4694 8.96101 17.1581 8.94061 16.8324C8.90962 16.3453 8.92452 16.0772 8.96842 15.7192C9.02002 15.299 9.12182 14.9103 9.28642 14.6148C9.41962 14.375 9.59472 14.1976 9.81752 14.1209C9.93412 14.0807 10.0452 14.066 10.1493 14.0731C10.4471 14.0933 10.7149 14.2961 10.9468 14.5994C11.197 14.9267 11.4037 15.3685 11.5641 15.8338C11.8576 16.687 11.9928 17.6062 11.9618 18.0614C11.9548 18.1641 12.009 18.3209 12.0821 18.5311C12.2774 19.0938 12.6319 20.1144 12.0856 20.742ZM8.57352 15.8158C8.53902 16.1615 8.53602 16.5133 8.55742 16.8567C8.57842 17.1886 8.62301 17.5098 8.68551 17.7944C8.51564 17.941 8.33416 18.0859 8.15649 18.2278L8.14541 18.2366C7.95551 18.3879 7.76312 18.5482 7.59202 18.6972L7.59922 18.6984C7.51405 18.6942 7.45851 18.6968 7.3937 18.6999C7.36392 18.7013 7.33218 18.7028 7.29472 18.7038C6.79472 18.7181 6.37612 18.7298 6.33962 17.5461C6.31322 16.6925 6.47362 16.1762 6.69162 15.861C6.89622 15.5652 7.15602 15.4484 7.34872 15.393C7.65892 15.3037 7.92252 15.4539 8.22362 15.6255C8.22362 15.6255 8.58739 15.8217 8.57352 15.8158ZM7.19061 19.8207C7.27731 19.5487 7.55722 19.2407 7.83942 18.9848C7.83942 18.9848 7.84663 18.9806 7.8649 18.9645C7.86862 18.9612 7.87281 18.9575 7.87752 18.9534C8.03452 18.8158 8.20772 18.6776 8.38422 18.5369L8.39229 18.5305C8.52567 18.4241 8.66084 18.3162 8.79581 18.2033C8.84192 18.3427 8.89332 18.4661 8.94872 18.5689C9.11412 18.8755 9.32802 19.0273 9.57841 18.9476C10.4264 18.6773 10.8665 18.3175 11.0897 17.9143C11.2784 17.9991 11.3142 18.207 11.2889 18.427C11.2457 18.8008 11.0475 19.2124 11.0014 19.3083L11.0008 19.3095L10.9999 19.3101L10.9914 19.3281L10.9899 19.3326C10.617 20.1629 9.97702 20.5539 9.47322 20.8616L9.39771 20.908C9.36311 20.9267 9.32382 20.9458 9.28102 20.9644L9.30021 20.9592C9.00611 21.0794 8.63112 21.1998 8.15682 21.1466C7.84912 21.1124 7.55822 20.9878 7.37452 20.7094C7.14742 20.3655 7.10851 20.0772 7.19061 19.8207ZM9.57672 20.9296C9.60782 20.9365 9.63172 20.9487 9.64882 20.9649C9.63292 20.9487 9.60962 20.9364 9.57672 20.9296Z" fill="#18449C"/>
</svg>